<svg width="500" height="500" viewBox="0 0 500 500" fill="none" xmlns="http://www.w3.org/2000/svg">
<path d="M250.004 1.66602C387.157 1.66625 498.341 112.851 498.341 250.004C498.341 387.156 387.156 498.341 250.004 498.341C112.851 498.341 1.66629 387.156 1.66602 250.004C1.66602 112.851 112.851 1.66619 250.004 1.66602ZM74.9541 374.866C113.948 429.435 177.821 465.007 250.004 465.007C322.186 465.007 386.06 429.435 425.054 374.866H74.9541ZM338.333 341.533H421.404L338.332 201.217L338.333 341.533ZM78.6113 341.533H160V204.057L78.6113 341.533ZM249.167 211.667C217.411 211.667 191.667 237.411 191.667 269.167C191.667 300.923 217.411 326.667 249.167 326.667C280.923 326.667 306.667 300.923 306.667 269.167C306.667 237.411 280.923 211.667 249.167 211.667ZM220.13 37.0586C115.527 51.5994 35 141.398 35 250.004C35.0001 276.856 39.9238 302.559 48.916 326.259L220.13 37.0586ZM451.094 326.251C460.084 302.553 465.007 276.854 465.007 250.004C465.007 141.4 384.485 51.6033 279.885 37.0596L451.094 326.251ZM174.242 180H325.772L250.007 52.0244L174.242 180Z" fill="#0A0A0A"/>
</svg>
